<svg xmlns="http://www.w3.org/2000/svg" xmlns:xlink="http://www.w3.org/1999/xlink" fill="none" version="1.1" width="24.82341957092285" height="24.408536911010742" viewBox="0 0 24.82341957092285 24.408536911010742"><g><path d="M19.0828,24.4085C17.8746,24.4085,16.5195,24.18,15.0991,23.7392C11.6869,22.6779,8.3236,20.4575,5.62972,17.4861C1.59707,13.0289,-0.329464,8.58813,0.0460465,4.63711C0.160332,3.65752,0.470536,2.4167,1.93992,1.42078C3.06645,0.506494,4.35625,-0.0159546,5.3685,0.000371704C6.42972,0.0166983,6.7889,0.392209,7.88278,1.97588C9.56441,4.29425,9.6787,5.43711,9.61339,6.09017C9.49911,7.16772,8.91135,7.64119,8.37258,8.06568C8.24197,8.16364,8.11135,8.27792,7.99707,8.37588C7.34401,9.20854,6.54401,10.3677,9.97258,13.9106C12.895,16.7187,14.4787,17.0616,15.1481,17.0126C15.6705,16.98,15.8665,16.7024,15.9481,16.6045L15.9644,16.5881C17.0583,15.0534,17.4175,14.6779,18.4624,14.5147C19.4746,14.3514,19.9971,14.6779,22.1522,16.033C24.095,17.2575,24.993,18.0738,24.7971,19.3636C24.7318,20.7677,23.6542,22.6779,22.446,23.5432C21.6134,24.1147,20.4542,24.4085,19.0828,24.4085Z" fill="#9DA5B5" fill-opacity="1"/></g></svg>