<svg xmlns="http://www.w3.org/2000/svg" xmlns:xlink="http://www.w3.org/1999/xlink" fill="none" version="1.1" width="32" height="32" viewBox="0 0 32 32"><g><g><path d="M28.9783,9.31169C28.908,9.87908,28.6505,10.42521,28.2092,10.857990000000001L17.9148,20.8884C16.8612,21.915,15.1388,21.915,14.0852,20.8884L3.790797,10.857990000000001C3.346621,10.42521,3.0893509,9.87632,3.0217113,9.31169C3.00809626,9.41991,3,9.52808,3,9.63892L3,23.3611C3,24.8124,4.2186699999999995,26,5.708410000000001,26L26.2917,26C27.7812,26,29,24.8124,29,23.3611L29,9.63892C29,9.52808,28.9919,9.41991,28.9783,9.31169ZM17.9148,18.9673L28.7076,8.45136C28.2605,7.591128,27.3425,7.000000675194,26.2917,7.000000675194L5.708410000000001,7C4.65762,7,3.7393140000000002,7.591127,3.292596,8.45136L14.0852,18.9673C15.1386,19.9939,16.8612,19.9939,17.9148,18.9673Z" fill="#9DA5B5" fill-opacity="1"/></g></g></svg>