<svg xmlns="http://www.w3.org/2000/svg" xmlns:xlink="http://www.w3.org/1999/xlink" fill="none" version="1.1" width="256" height="51" viewBox="0 0 256 51"><g><rect x="0" y="0" width="256" height="51" rx="0"  fill-opacity="1"/><g><path d="M81.3668,0.426126C80.2462,-0.668561,78.1759,0.566471,77.0553,1.6518L72.5824,6.06797L58.4609,4.75809L56.2577,6.90069L68.6128,10.3999L64.1969,15.1436L60.4362,14.9377L59.1257,16.2102L62.0411,17.6791C61.7467,17.885,56.8655,21.3468,50.0849,25.2671L44.4249,11.6537L22.3928,11.6537L13.5989,32.8083L11.6141,37.58Q19.6862,46.1504,34.292,37.58C36.2768,36.4198,38.2236,35.2035,40.123,33.9778L41.253,36.9251C33.2379,41.257,23.5609,44.3633,13.1241,43.2406Q-2.50735,41.5658,17.2171,14.629Q-14.663,47.4041,12.4878,50.7724C23.5704,52.1478,34.1021,47.1047,42.687,40.6489L46.5806,50.7724L60.6736,50.7724L52.763,31.7417Q59.4391,24.9396,63.5036,18.961L65.0136,22.1047L66.3241,20.8322L66.1627,17.1645L70.9585,12.4958L74.4722,25.0893L76.6754,22.9467L75.2509,9.1462L79.9138,4.3932C81.0344,3.30787,82.2214,1.29626,81.3477,0.435483L81.3668,0.426126ZM25.897,35.8397L33.2854,16.6312L33.4468,16.6312L39.0024,31.0774C34.6434,33.0983,30.123,34.8292,25.897,35.8397ZM51.9842,29.8517L50.6547,26.6612C57.2454,21.7866,61.7752,17.913,62.0316,17.6885L63.1048,18.2312L63.1712,18.2592L63.5036,18.961Q59.1827,24.2098,51.9747,29.8517L51.9842,29.8517Z" fill="#C1272D" fill-opacity="1"/></g><g><path d="M94.2156277709961,48.012133984375C90.1511177709961,48.012133984375,86.54239777099609,47.151333984375,83.3800277709961,45.429833984375L83.3800277709961,38.889733984375C85.0324377709961,39.900233984375,86.85578777099609,40.742333984375,88.84057777099609,41.425333984375C90.8253677709961,42.108333984375,92.6297277709961,42.445133984375005,94.25362777099609,42.445133984375005C95.5737277709961,42.445133984375005,96.61832777099609,42.117633984375004,97.38752777099609,41.462733984375C98.1567277709961,40.807833984375,98.53662777099609,40.068633984375,98.53662777099609,39.235933984374995C98.53662777099609,38.075733984375,98.0808277709961,37.018533984375,97.17862777099609,36.054733984375005C96.2764277709961,35.091133984375,94.8329277709961,34.314533984375004,92.8481577709961,33.715733984375C90.5594677709961,33.004633984375005,88.7741077709961,32.284233984375,87.5015577709961,31.563733984375C86.21951777099609,30.833933984375,85.2603577709961,29.926433984375002,84.6145877709961,28.831733984375C83.96882077099609,27.737033984375,83.6459387709961,26.342933984375,83.6459387709961,24.649453984375C83.6459387709961,23.049533984375,84.0353037709961,21.589943984375,84.82351777099609,20.270703984375C85.6022377709961,18.951473984375,86.76082777099609,17.894203984375,88.2802877709961,17.089563984375C89.79973777099609,16.284923984375,91.6135977709961,15.845177984375,93.7218277709961,15.751614784375C93.99722777099609,15.723545184375,94.4151277709961,15.704833984375,94.9849277709961,15.704833984375C96.5518277709961,15.704833984375,98.11882777099609,15.863890984375,99.7047277709961,16.172648984375C101.2811277709961,16.481406984375,102.61072777099609,16.874373984375,103.7028277709961,17.351543984375L103.7028277709961,23.086953984375C102.5252277709961,22.581713984375,101.15772777099609,22.170033984375,99.6002277709961,21.842563984375C98.0333277709961,21.515093984375,96.6468277709961,21.356043984375,95.4502277709961,21.356043984375C93.9117277709961,21.356043984375,92.74369777099609,21.627373984374998,91.92698777099609,22.160683984374998C91.1197777709961,22.693993984375,90.7114277709961,23.433133984375,90.7114277709961,24.387483984375002C90.7114277709961,25.248263984375,91.1482677709961,26.015433984375,92.0219577709961,26.698533984375C92.89563777099609,27.381533984375,94.2441277709961,28.036433984375,96.0865277709961,28.653933984375C98.28022777099609,29.280833984375,100.07512777099609,29.982533984375,101.4616277709961,30.768433984375C102.84812777099609,31.554433984375002,103.9307277709961,32.574233984375,104.70942777099609,33.837333984375C105.4881277709961,35.100433984375,105.8870277709961,36.672333984375,105.8870277709961,38.571633984375C105.8870277709961,40.470933984375,105.4691277709961,41.977333984375,104.62392777099609,43.371433984375C103.7787277709961,44.765533984375,102.60122777099609,45.850833984375,101.0817277709961,46.636733984375C99.56222777099609,47.422733984375,97.79592777099609,47.862433984375,95.7826277709961,47.946633984375C95.4502277709961,47.974733984375,94.9374277709961,47.993433984375,94.2441277709961,47.993433984375L94.2156277709961,48.012133984375Z" fill="#FFFFFF" fill-opacity="1"/></g><g><path d="M137.04545114746094,16.3037109375L137.04545114746094,47.4321109375L129.60005114746093,47.4321109375L129.60005114746093,34.2678109375L117.46339114746094,34.2678109375L117.46339114746094,47.4321109375L110.01805114746094,47.4321109375L110.01805114746094,16.3037109375L117.46339114746094,16.3037109375L117.46339114746094,28.2611109375L129.60005114746093,28.2611109375L129.60005114746093,16.30371272207L137.04545114746094,16.3037109375Z" fill="#FFFFFF" fill-opacity="1"/></g><g><path d="M146.22864083496094,44.6252109375C143.71204083496093,42.3703109375,142.45848083496094,39.2734109375,142.45848083496094,35.334410937499996L142.45848083496094,16.3037109375L149.90382083496092,16.3037109375L149.90382083496092,35.334410937499996C149.90382083496092,36.634910937499995,150.19822083496095,37.7671109375,150.78700083496093,38.7120109375C151.37579083496092,39.657010937500004,152.16401083496095,40.3962109375,153.15168083496093,40.9108109375C154.14878083496095,41.425410937500004,155.21238083496092,41.6873109375,156.35198083496093,41.6873109375C157.49158083496093,41.6873109375,158.60268083496095,41.425410937500004,159.58088083496094,40.9108109375C160.55898083496095,40.3962109375,161.33778083496094,39.6477109375,161.90748083496095,38.6840109375C162.47738083496094,37.7203109375,162.76218083496093,36.597510937500005,162.76218083496093,35.3251109375L162.76218083496093,16.3037109375L170.20758083496094,16.3037109375L170.20758083496094,35.334410937499996C170.20758083496094,39.2734109375,168.95398083496093,42.3704109375,166.43738083496095,44.6252109375C163.92078083496094,46.8801109375,160.55898083496095,48.0028109375,156.35198083496093,48.0028109375C152.14501083496094,48.0028109375,148.73571083496094,46.8801109375,146.21912083496093,44.6252109375L146.22864083496094,44.6252109375Z" fill="#FFFFFF" fill-opacity="1"/></g><g><path d="M183.20845650390626,21.8145709375L182.80010650390625,21.8145709375L182.80010650390625,47.4228109375L175.62066650390625,47.4228109375L175.62066650390625,16.3037109375L188.57406650390624,16.3037109375L192.85696650390625,38.5810109375L192.95196650390625,39.0301109375L193.03746650390624,38.5810109375L197.32046650390626,16.3037109375L210.27376650390624,16.3037109375L210.27376650390624,47.4321109375L203.09436650390626,47.4321109375L203.09436650390626,21.8145709375L202.73346650390624,21.8145709375L197.32046650390626,47.4228109375L188.56456650390624,47.4228109375L183.18945650390626,21.8145709375L183.20845650390626,21.8145709375Z" fill="#FFFFFF" fill-opacity="1"/></g><g><path d="M234.38570854492187,38.6278109375L224.27180854492187,38.6278109375L221.87868854492189,47.4321109375L213.97750854492188,47.4321109375L223.14173854492188,16.3037109375L235.55380854492188,16.3037109375L244.71800854492187,47.4321109375L236.77890854492188,47.4321109375L234.38570854492187,38.6278109375ZM232.94220854492187,33.2947109375L229.38100854492188,20.2707809375L229.28600854492188,20.2707809375L225.72480854492187,33.2947109375L232.94220854492187,33.2947109375Z" fill="#FFFFFF" fill-opacity="1"/></g><g><path d="M248.55465698242188,16.3037109375L255.99999698242186,16.3037109375L255.99999698242186,47.4321109375L248.55465698242188,47.4321109375L248.55465698242188,16.3037109375Z" fill="#FFFFFF" fill-opacity="1"/></g></g></svg>