<svg xmlns="http://www.w3.org/2000/svg" xmlns:xlink="http://www.w3.org/1999/xlink" fill="none" version="1.1" width="269.5697326660156" height="54.50872802734375" viewBox="0 0 269.5697326660156 54.50872802734375"><g><g><path d="M85.6797,0.455443C84.4997,-0.714557,82.3197,0.605443,81.1397,1.76544L76.4297,6.48544L61.5597,5.08544L59.2397,7.37544L72.2497,11.1154L67.5997,16.1854L63.6397,15.9654L62.2597,17.3254L65.3297,18.8954C65.0197,19.1154,59.8797,22.8154,52.7397,27.0054L46.7797,12.4554L23.5797,12.4554L14.3197,35.0654L12.2297,40.1654Q20.7297,49.3254,36.1097,40.1654C38.1997,38.9254,40.2497,37.6254,42.2497,36.3154L43.4397,39.4654C34.9997,44.0954,24.8097,47.4154,13.8197,46.2154Q-2.64025,44.4254,18.1297,15.6354Q-15.4403,50.6654,13.1497,54.2654C24.8197,55.7354,35.9097,50.3454,44.9497,43.4454L49.0497,54.2654L63.8897,54.2654L55.5597,33.9254Q62.5897,26.6554,66.8697,20.2654L68.4597,23.6254L69.8397,22.2654L69.6697,18.3454L74.7197,13.3554L78.4197,26.8154L80.7397,24.5254L79.2397,9.77544L84.1497,4.69544C85.3297,3.53544,86.5797,1.38544,85.6597,0.465444L85.6797,0.455443ZM27.2697,38.3054L35.0498,17.7754L35.2197,17.7754L41.0697,33.2154C36.4797,35.3754,31.7197,37.2254,27.2697,38.3054ZM54.7397,31.9054L53.3397,28.4954C60.2797,23.2854,65.0497,19.1454,65.3197,18.9054L66.4497,19.4854L66.5197,19.5154L66.8697,20.2654Q62.3197,25.8754,54.7297,31.9054L54.7397,31.9054Z" fill="#C1272D" fill-opacity="1"/></g><g><g><path d="M99.20974365234375,51.315430908203126C94.92974365234375,51.315430908203126,91.12974365234375,50.395430908203124,87.79974365234375,48.55543090820312L87.79974365234375,41.565430908203126C89.53974365234374,42.645430908203124,91.45974365234375,43.54543090820313,93.54974365234375,44.27543090820312C95.63974365234375,45.005430908203124,97.53974365234374,45.36543090820312,99.24974365234375,45.36543090820312C100.63974365234375,45.36543090820312,101.73974365234375,45.01543090820313,102.54974365234375,44.315430908203126C103.35974365234375,43.61543090820312,103.75974365234376,42.825430908203124,103.75974365234376,41.935430908203124C103.75974365234376,40.69543090820312,103.27974365234375,39.565430908203126,102.32974365234375,38.535430908203125C101.37974365234375,37.505430908203124,99.85974365234375,36.675430908203126,97.76974365234375,36.035430908203125C95.35974365234375,35.27543090820312,93.47974365234376,34.505430908203124,92.13974365234375,33.73543090820313C90.78975365234375,32.95543090820313,89.77974365234375,31.985430908203124,89.09974365234375,30.815430908203126C88.41974665234375,29.645430908203124,88.07974965234375,28.155430908203122,88.07974965234375,26.345430908203127C88.07974965234375,24.635430908203126,88.48975365234375,23.075430908203124,89.31974365234375,21.665430908203124C90.13974365234375,20.255430908203124,91.35975365234376,19.125430908203125,92.95974365234375,18.265430908203125C94.55974365234376,17.405429908203125,96.46975365234375,16.935430908203124,98.68974365234375,16.835430108203123C98.97974365234376,16.805429508203126,99.41974365234375,16.785430908203125,100.01974365234375,16.785430908203125C101.66974365234375,16.785430908203125,103.31974365234375,16.955430908203127,104.98974365234375,17.285430908203125C106.64974365234374,17.615430908203123,108.04974365234375,18.035430908203125,109.19974365234376,18.545430908203127L109.19974365234376,24.675430908203126C107.95974365234375,24.135430908203126,106.51974365234375,23.695430908203125,104.87974365234375,23.345430908203124C103.22974365234376,22.995430908203126,101.76974365234375,22.825430908203124,100.50974365234376,22.825430908203124C98.88974365234375,22.825430908203124,97.65975365234375,23.115430908203123,96.79975365234375,23.685430908203124C95.94975365234374,24.255430908203124,95.51975365234375,25.045430908203123,95.51975365234375,26.065430908203126C95.51975365234375,26.985430908203124,95.97975365234375,27.805430908203125,96.89975365234375,28.535430908203125C97.81974365234375,29.265430908203125,99.23974365234375,29.965430908203125,101.17974365234375,30.625430908203125C103.48974365234375,31.295430908203123,105.37974365234375,32.04543090820312,106.83974365234374,32.885430908203126C108.29974365234375,33.72543090820312,109.43974365234375,34.815430908203126,110.25974365234376,36.16543090820312C111.07974365234375,37.51543090820313,111.49974365234375,39.19543090820312,111.49974365234375,41.22543090820312C111.49974365234375,43.255430908203124,111.05974365234376,44.86543090820312,110.16974365234375,46.355430908203125C109.27974365234375,47.84543090820313,108.03974365234374,49.005430908203124,106.43974365234375,49.84543090820313C104.83974365234374,50.685430908203124,102.97974365234376,51.15543090820312,100.85974365234375,51.245430908203126C100.50974365234376,51.27543090820313,99.96974365234375,51.29543090820312,99.23974365234375,51.29543090820312L99.20974365234375,51.315430908203126Z" fill="#000000" fill-opacity="1"/></g><g><path d="M144.30976196289063,17.425426483154297L144.30976196289063,50.6954264831543L136.46976196289063,50.6954264831543L136.46976196289063,36.6254264831543L123.68976196289063,36.6254264831543L123.68976196289063,50.6954264831543L115.84976196289062,50.6954264831543L115.84976196289062,17.425426483154297L123.68976196289063,17.425426483154297L123.68976196289063,30.205426483154298L136.46976196289063,30.205426483154298L136.46976196289063,17.425428390504297L144.30976196289063,17.425426483154297Z" fill="#000000" fill-opacity="1"/></g><g><path d="M153.97975036621094,47.69542648315429C151.32976036621093,45.285426483154296,150.00975036621094,41.975426483154294,150.00975036621094,37.7654264831543L150.00975036621094,17.425426483154297L157.84975036621094,17.425426483154297L157.84975036621094,37.7654264831543C157.84975036621094,39.1554264831543,158.15974036621094,40.365426483154295,158.77974036621094,41.3754264831543C159.39973036621095,42.3854264831543,160.22975036621094,43.1754264831543,161.26975036621093,43.725426483154294C162.31975036621094,44.2754264831543,163.43975036621094,44.55542648315429,164.63975036621093,44.55542648315429C165.83975036621095,44.55542648315429,167.00975036621094,44.2754264831543,168.03975036621094,43.725426483154294C169.06975036621094,43.1754264831543,169.88975036621093,42.3754264831543,170.48975036621093,41.3454264831543C171.08975036621092,40.3154264831543,171.38975036621093,39.115426483154295,171.38975036621093,37.755426483154295L171.38975036621093,17.425426483154297L179.22975036621094,17.425426483154297L179.22975036621094,37.7654264831543C179.22975036621094,41.975426483154294,177.90975036621094,45.285426483154296,175.25975036621094,47.69542648315429C172.60975036621093,50.1054264831543,169.06975036621094,51.3054264831543,164.63975036621093,51.3054264831543C160.20975036621093,51.3054264831543,156.61972036621094,50.1054264831543,153.96973036621094,47.69542648315429L153.97975036621094,47.69542648315429Z" fill="#000000" fill-opacity="1"/></g><g><path d="M192.91975379394532,23.315426483154297L192.48976379394531,23.315426483154297L192.48976379394531,50.685426483154295L184.9297637939453,50.685426483154295L184.9297637939453,17.425426483154297L198.5697637939453,17.425426483154297L203.07976379394532,41.2354264831543L203.1797637939453,41.715426483154296L203.26976379394532,41.2354264831543L207.7797637939453,17.425426483154297L221.41976379394532,17.425426483154297L221.41976379394532,50.6954264831543L213.85976379394532,50.6954264831543L213.85976379394532,23.315426483154297L213.47976379394532,23.315426483154297L207.7797637939453,50.685426483154295L198.5597637939453,50.685426483154295L192.8997537939453,23.315426483154297L192.91975379394532,23.315426483154297Z" fill="#000000" fill-opacity="1"/></g><g><path d="M246.80976318359376,41.28542457580566L236.15976318359375,41.28542457580566L233.63975318359374,50.69542457580567L225.31976318359375,50.69542457580567L234.96975318359375,17.425424575805664L248.03976318359375,17.425424575805664L257.68976318359375,50.69542457580567L249.32976318359374,50.69542457580567L246.80976318359376,41.28542457580566ZM245.28976318359375,35.58542457580566L241.53976318359375,21.665424575805666L241.43976318359375,21.665424575805666L237.68976318359375,35.58542457580566L245.28976318359375,35.58542457580566Z" fill="#000000" fill-opacity="1"/></g><g><path d="M261.729736328125,17.425426483154297L269.569736328125,17.425426483154297L269.569736328125,50.6954264831543L261.729736328125,50.6954264831543L261.729736328125,17.425426483154297Z" fill="#000000" fill-opacity="1"/></g></g></g></svg>